#!OML:ASF H:\Terrain\Patient Classification 1\Takeo\Monday\TakeoMonday.ASF
:FULLY-SPECIFIED
:DEGREES
1101
root 10.1568 16.9036 -0.604399 -5.45665 -37.0246 3.96421
lowerback 16.3685 1.7503 0.13592
upperback 8.54137 2.11431 -0.120657
thorax -0.0826626 0.983217 -0.540405
lowerneck -12.8349 5.91484 -0.0724266
upperneck -1.31188 8.1151 -8.51759
head 2.19636 3.77085 -2.26944
rclavicle -3.65764e-014 3.22031e-014
rhumerus -26.0183 22.2363 -83.1461
rradius 102.577
rwrist 2.54885
rhand -33.3653 40.2178
rfingers 7.12502
rthumb -6.56689 10.3396
lclavicle -3.65764e-014 3.22031e-014
lhumerus -31.8524 -7.55138 93.4945
lradius 109.141
lwrist 19.843
lhand -27.7847 2.53896
lfingers 7.12502
lthumb -1.17797 32.5155
rfemur -11.6959 -1.73465 15.4256
rtibia 45.8422
rfoot -26.7526 -10.7099
rtoes -12.3643
lfemur -23.492 16.2622 -20.1316
ltibia 49.1432
lfoot -16.1388 13.2633
ltoes 1.46447
1102
root 10.1592 16.8695 -0.618379 -5.97162 -37.6464 4.43555
lowerback 16.4885 1.4762 -0.133968
upperback 8.5012 1.71825 0.123726
thorax -0.208032 0.769439 -0.0729422
lowerneck -12.7207 6.72474 0.377969
upperneck -0.976284 9.20456 -9.59734
head 2.43539 4.26896 -2.63513
rclavicle 5.36719e-015 -2.8625e-014
rhumerus -27.9761 22.8287 -83.6551
rradius 103.111
rwrist 2.74453
rhand -33.4697 40.2952
rfingers 7.12502
rthumb -6.66761 10.4201
lclavicle 5.36719e-015 -2.8625e-014
lhumerus -32.0641 -6.62359 93.466
lradius 109.292
lwrist 19.9033
lhand -27.5972 2.74501
lfingers 7.12502
lthumb -0.996867 32.7224
rfemur -12.0325 -1.32886 15.1071
rtibia 46.6423
rfoot -27.0514 -10.7883
rtoes -13.0017
lfemur -23.1675 16.4304 -20.2553
ltibia 49.4886
lfoot -16.5982 13.1088
ltoes 0.716273
1103
root 10.1642 16.8307 -0.632914 -6.30304 -37.9651 4.7632
lowerback 16.4148 1.10604 -0.103043
upperback 8.57779 1.23666 0.303728
thorax -0.0913448 0.523666 0.178114
lowerneck -12.9158 7.35509 0.751378
upperneck -0.661553 10.0685 -10.4623
head 2.71197 4.65127 -2.92214
rclavicle -1.90833e-014 -1.90833e-014
rhumerus -29.3869 23.2234 -84.0395
rradius 103.307
rwrist 2.64516
rhand -33.5902 40.6854
rfingers 7.12502
rthumb -6.78395 10.8141
lclavicle -1.90833e-014 -1.90833e-014
lhumerus -31.9578 -5.89065 93.3848
lradius 109.288
lwrist 19.9324
lhand -27.7901 2.93361
lfingers 7.12502
lthumb -1.18318 32.9101
rfemur -12.366 -1.1592 14.8742
rtibia 47.3922
rfoot -27.4273 -10.6505
rtoes -12.7183
lfemur -23.1413 16.2606 -20.3707
ltibia 49.735
lfoot -16.6935 13.3748
ltoes -0.0178519
1104
root 10.1698 16.7955 -0.65968 -6.28337 -38.4365 4.61586
lowerback 16.3997 0.894127 0.378547
upperback 8.64589 1.02269 0.427372
thorax -0.0032444 0.42704 0.071093
lowerneck -13.0438 7.8717 1.60181
upperneck -0.289447 10.7266 -11.7851
head 2.7715 4.90126 -3.12179
rclavicle 3.16068e-014 -1.98785e-014
rhumerus -30.8043 22.9796 -84.5661
rradius 103.566
rwrist 2.53691
rhand -33.7241 41.142
rfingers 7.12502
rthumb -6.91328 11.2749
lclavicle 3.16068e-014 -1.98785e-014
lhumerus -31.948 -5.68253 93.1911
lradius 109.41
lwrist 20.0231
lhand -27.975 2.90008
lfingers 7.12502
lthumb -1.36172 32.8755
rfemur -12.846 -1.0047 15.1202
rtibia 48.1566
rfoot -27.588 -10.497
rtoes -12.071
lfemur -23.274 16.267 -20.0158
ltibia 49.8603
lfoot -17.0331 13.5848
ltoes 0.937674
1105
root 10.1721 16.7687 -0.667448 -7.16555 -39.2048 4.98109
lowerback 16.9501 0.837242 0.470463
upperback 8.80245 0.95034 0.518373
thorax -0.122014 0.385531 0.120953
lowerneck -12.8345 8.39304 2.13294
upperneck -0.215789 11.4077 -12.6853
head 2.8984 5.2094 -3.41911
rclavicle -8.3092e-014 3.33958e-014
rhumerus -32.5263 22.7856 -84.9593
rradius 104.103
rwrist 2.60772
rhand -33.9787 41.2128
rfingers 7.12502
rthumb -7.15897 11.3539
lclavicle -8.3092e-014 3.33958e-014
lhumerus -32.2251 -5.34575 93.1663
lradius 109.655
lwrist 19.9893
lhand -28.0595 2.74559
lfingers 7.12502
lthumb -1.44341 32.7204
rfemur -12.6922 -0.614317 14.8641
rtibia 48.8895
rfoot -27.8476 -10.3346
rtoes -13.0431
lfemur -22.46 16.7029 -19.9316
ltibia 49.8988
lfoot -17.6486 13.7661
ltoes 1.89254
